<?xml version="1.0" encoding="UTF-8"?>
<svg version="1.1" xmlns="http://www.w3.org/2000/svg" width="1690" height="526">
<path d="M0 0 C3.23602629 0.0031413 6.47111843 -0.02031222 9.70703125 -0.0456543 C28.11732973 -0.10248783 46.31621156 1.45811048 64.20703125 6.00317383 C65.74061279 6.3833667 65.74061279 6.3833667 67.30517578 6.77124023 C105.44779188 16.51288893 140.16391188 33.51520195 170.76953125 58.31567383 C171.31931641 58.76104492 171.86910156 59.20641602 172.43554688 59.6652832 C186.14397739 70.87552223 198.97256136 83.25537108 209.76953125 97.31567383 C210.78285966 98.58990284 211.79726518 99.86327572 212.8125 101.13598633 C255.30459653 154.90342559 275.02530538 225.06197556 267.58203125 293.12817383 C264.00988657 322.63728781 256.07086536 351.64548614 242.76953125 378.31567383 C242.38297363 379.09442871 241.99641602 379.87318359 241.59814453 380.67553711 C230.48843371 402.84648323 216.62756446 422.63960886 199.890625 440.97192383 C197.95121622 443.11491695 196.07623826 445.29912021 194.20703125 447.50317383 C191.346303 450.78286457 188.28335278 453.62350005 184.9609375 456.42895508 C183.43521557 457.74254455 181.94494527 459.09797335 180.484375 460.48364258 C168.27210969 472.05415052 154.35254797 481.95892812 139.76953125 490.31567383 C139.08971191 490.71818359 138.40989258 491.12069336 137.70947266 491.53540039 C107.48399949 509.39440509 74.0870614 520.07199863 39.45703125 525.12817383 C38.24309692 525.31416138 38.24309692 525.31416138 37.00463867 525.50390625 C28.29432846 526.67061151 19.5377521 526.41844755 10.76953125 526.31567383 C10.77175186 525.67104187 10.77397247 525.02640991 10.77626038 524.36224365 C10.79868417 517.54675867 10.81358939 510.73128445 10.82446289 503.91577148 C10.82943808 501.38484266 10.83622063 498.85391663 10.8449707 496.32299805 C10.89084125 482.69674634 10.7847461 469.13806883 9.99438477 455.53344727 C9.68100287 450.04330999 9.65478719 444.56335618 9.70703125 439.06567383 C9.71154297 438.10661133 9.71605469 437.14754883 9.72070312 436.15942383 C9.73210977 433.87809484 9.7482631 431.5969281 9.76953125 429.31567383 C14.4626375 429.79853855 16.68003013 431.64288641 20.14453125 434.75317383 C26.92028582 440.63981667 34.19758607 445.51818185 41.76953125 450.31567383 C42.69620605 450.90977051 42.69620605 450.90977051 43.64160156 451.51586914 C50.60383285 455.95571227 57.64849513 459.91360268 65.20703125 463.25317383 C66.16403931 463.67699341 66.16403931 463.67699341 67.14038086 464.109375 C76.00721501 467.87382574 85.85958694 470.3345431 95.36328125 467.55786133 C105.25547119 463.37016759 109.42036805 456.92052556 113.76953125 447.31567383 C124.87830971 416.9433582 118.51326813 378.94073005 114.90234375 347.59692383 C113.13182243 331.97954082 112.45289876 316.59093165 112.39453125 300.87817383 C112.38288437 299.42820511 112.38288437 299.42820511 112.3710022 297.94894409 C112.35335235 295.17632134 112.35820803 292.40471199 112.37109375 289.63208008 C112.36515701 288.80938629 112.35922028 287.9866925 112.35310364 287.1390686 C112.45788923 278.35349609 115.26921727 272.09432528 121.265625 265.66723633 C124.61396952 262.52261324 128.22716822 259.79110045 131.90405273 257.05102539 C139.18007259 251.5926872 145.31208482 245.371047 150.578125 237.94458008 C151.76953125 236.31567383 151.76953125 236.31567383 153.76953125 234.31567383 C159.98839526 234.15484114 166.76536647 235.79080658 172.76953125 237.31567383 C173.76953125 238.31567383 173.76953125 238.31567383 173.83203125 240.87817383 C173.81140625 241.68254883 173.79078125 242.48692383 173.76953125 243.31567383 C174.59783447 243.46262695 174.59783447 243.46262695 175.44287109 243.61254883 C183.21949735 245.07312547 190.7823597 247.17183776 198.39453125 249.31567383 C203.18418225 250.6563875 207.97548753 251.99075315 212.76953125 253.31567383 C213.58389648 253.54512695 214.39826172 253.77458008 215.23730469 254.01098633 C219.17075668 255.07236435 222.69611482 255.51934465 226.76953125 255.31567383 C231.14361519 244.48252593 234.48106419 233.77517265 236.76953125 222.31567383 C237.10984375 220.63344727 237.10984375 220.63344727 237.45703125 218.91723633 C238.97747825 210.36472196 238.96942019 201.96642298 238.76953125 193.31567383 C230.73608125 191.1866487 222.7292182 189.47790025 214.51953125 188.19067383 C212.89797119 187.9362854 212.89797119 187.9362854 211.24365234 187.67675781 C198.56354487 185.55732403 198.56354487 185.55732403 185.76953125 185.31567383 C184.7496861 186.29542679 183.74762119 187.29423364 182.76953125 188.31567383 C180.4765625 188.34692383 180.4765625 188.34692383 177.58203125 187.81567383 C176.43992187 187.61200195 175.2978125 187.40833008 174.12109375 187.19848633 C170.69214459 186.51799473 167.27407886 185.78833357 163.85546875 185.05786133 C162.80383545 184.83420898 161.75220215 184.61055664 160.66870117 184.38012695 C158.56001689 183.92745311 156.45329856 183.46550216 154.34887695 182.9934082 C148.6454255 181.75161359 143.59162389 181.20959068 137.76953125 181.31567383 C134.64453125 180.76489258 134.64453125 180.76489258 131.76953125 180.00317383 C130.82078125 179.75954102 129.87203125 179.5159082 128.89453125 179.26489258 C126.48490868 178.53296972 124.25878682 177.71457718 121.93359375 176.77270508 C117.01625788 174.89099988 112.15855678 174.55164736 106.94921875 174.14379883 C102.2827182 173.70420095 98.90280083 172.7147956 94.76953125 170.31567383 C95.2524961 167.12810582 96.02182049 164.77228162 97.39453125 161.81567383 C98.80116528 158.23515085 99.02406913 156.87019783 97.76953125 153.31567383 C97.43953125 152.98567383 97.10953125 152.65567383 96.76953125 152.31567383 C93.438759 152.6999937 90.33088733 153.12855513 87.14453125 154.19067383 C86.36078125 154.23192383 85.57703125 154.27317383 84.76953125 154.31567383 C84.06828125 153.57317383 83.36703125 152.83067383 82.64453125 152.06567383 C73.60789685 143.42193658 54.26627458 144.07290881 42.34375 144.14770508 C39.65148865 144.21402906 39.65148865 144.21402906 36.76953125 145.31567383 C36.80095215 144.19878174 36.80095215 144.19878174 36.83300781 143.05932617 C37.42301096 118.91027337 34.82289348 101.39084542 18.76953125 82.31567383 C18.33511719 81.73688477 17.90070313 81.1580957 17.453125 80.56176758 C5.65262432 65.37963088 -14.58789933 55.91178761 -33.23046875 53.31567383 C-49.5304145 52.25047981 -64.47935666 56.55503345 -77.16796875 67.00317383 C-85.53364363 75.19456381 -91.17859066 85.61668202 -96.60522461 95.87182617 C-97.77038704 98.04825706 -98.98054697 100.18684732 -100.23046875 102.31567383 C-100.865896 103.41274658 -100.865896 103.41274658 -101.51416016 104.53198242 C-104.7822325 109.55387822 -107.69620976 111.46626737 -113.51855469 112.83520508 C-119.05866867 113.8167449 -124.60506302 114.50923247 -130.1953125 115.13208008 C-140.06250734 116.23930671 -140.06250734 116.23930671 -148.23046875 121.37817383 C-150.12780084 126.95158683 -149.98576421 132.23861132 -147.98046875 137.75317383 C-145.48786814 141.4030533 -143.40072595 142.92558809 -139.23046875 144.31567383 C-136.67524229 144.44138863 -134.16095547 144.50546472 -131.60546875 144.50317383 C-130.86071289 144.50381836 -130.11595703 144.50446289 -129.34863281 144.50512695 C-122.43663369 144.44136847 -115.68119155 143.68487812 -108.83984375 142.75317383 C-105.9113809 142.39820863 -103.17169237 142.2244731 -100.23046875 142.31567383 C-97.7943487 160.35613043 -99.46654011 179.88055064 -109.98046875 195.19067383 C-123.36391185 212.21960702 -142.24425885 219.02540302 -162.48046875 224.37817383 C-180.32541073 229.10947645 -193.34130606 234.98998097 -203.23046875 251.31567383 C-218.67972198 278.41962687 -229.40312226 309.14142487 -232.23046875 340.31567383 C-232.39482422 341.97276367 -232.39482422 341.97276367 -232.5625 343.66333008 C-233.41307366 353.54132552 -233.32550348 363.41094341 -233.23046875 373.31567383 C-236.89424875 369.98642969 -238.19609684 366.16119502 -239.98046875 361.62817383 C-240.32754883 360.75040283 -240.67462891 359.87263184 -241.03222656 358.96826172 C-247.44275062 342.33093939 -252.30109241 324.90888428 -255.23046875 307.31567383 C-255.45476562 305.97835205 -255.45476562 305.97835205 -255.68359375 304.61401367 C-260.12874516 276.66416615 -260.60520631 246.14579463 -255.23046875 218.31567383 C-255.05354492 217.375625 -254.87662109 216.43557617 -254.69433594 215.46704102 C-246.3359781 172.00069309 -228.21805042 131.71172699 -200.23046875 97.31567383 C-199.79863281 96.78087402 -199.36679688 96.24607422 -198.921875 95.69506836 C-186.86138915 80.86853629 -173.40851842 66.90655558 -157.96777344 55.59106445 C-156.12789639 54.24037337 -154.3077872 52.86553633 -152.48828125 51.48754883 C-118.26983403 25.74370231 -78.2834176 9.6567127 -36.23046875 2.31567383 C-35.17230957 2.12658447 -34.11415039 1.93749512 -33.02392578 1.74267578 C-22.0354442 0.01828454 -11.10123933 -0.02243514 0 0 Z " fill="#FFFFFF" transform="translate(258.23046875,-0.315673828125)"/>
<path d="M0 0 C2.25618999 1.67658256 4.35864658 3.43458674 6.453125 5.30859375 C7.20078125 5.9634375 7.9484375 6.61828125 8.71875 7.29296875 C21.05002605 18.78538249 28.64156865 34.82427283 29.65625 51.68359375 C29.89963396 70.50528676 24.9085649 87.53214484 11.65991211 101.28027344 C1.20268093 111.66028309 -10.15069497 118.79676308 -24.546875 122.30859375 C-25.72830078 122.61603516 -25.72830078 122.61603516 -26.93359375 122.9296875 C-45.06505883 127.16328241 -63.9263794 122.82630204 -79.73779297 113.45019531 C-95.21669074 103.68240503 -105.14195378 89.12583444 -110.421875 71.74609375 C-114.47352233 53.58603162 -111.45035502 35.02660041 -101.546875 19.30859375 C-89.5231154 1.92848563 -72.49437837 -8.08743413 -51.890625 -11.99609375 C-33.56046155 -15.10681159 -15.34350052 -10.18977872 0 0 Z M-67.3046875 34.484375 C-73.8668353 43.91548114 -74.66051094 53.11655251 -73.546875 64.30859375 C-72.71351291 67.73674235 -71.47742127 70.37080595 -69.546875 73.30859375 C-69.11117187 74.00210938 -68.67546875 74.695625 -68.2265625 75.41015625 C-62.80327698 83.32281873 -56.48796252 87.68276586 -47.140625 89.83984375 C-39.43910622 91.23168449 -32.17514425 89.98067006 -25.375 86.0546875 C-16.77239736 79.93616973 -10.90122904 72.72904833 -8.546875 62.30859375 C-7.26334981 52.19917882 -9.51023425 43.2410047 -15.421875 34.93359375 C-21.41736833 27.62565412 -28.2576641 23.07255925 -37.73046875 21.921875 C-49.28605037 21.52716138 -59.88947693 25.30599214 -67.3046875 34.484375 Z " fill="#FFFFFF" transform="translate(1080.546875,142.69140625)"/>
<path d="M0 0 C2.23767374 1.66967819 4.33396047 3.41648071 6.41796875 5.2734375 C7.08054687 5.84320313 7.743125 6.41296875 8.42578125 7 C21.34865674 18.90931663 28.35531881 35.07573754 29.65625 52.45703125 C30.08339357 71.18390472 23.87247565 87.25601209 11.41796875 101.2734375 C10.86367188 101.91023438 10.309375 102.54703125 9.73828125 103.203125 C-3.06503373 116.98659806 -22.43734752 123.99122342 -40.89453125 124.7109375 C-61.61447065 124.07613543 -80.30971094 115.89955443 -94.75 101.04296875 C-108.64143342 85.00199051 -113.03777463 66.0277973 -111.58203125 45.2734375 C-109.36227962 27.55541996 -98.44774453 12.19055645 -84.70703125 1.3359375 C-58.96678094 -16.68223772 -26.15171799 -17.48723048 0 0 Z M-55.58203125 25.2734375 C-56.68998047 25.85931641 -56.68998047 25.85931641 -57.8203125 26.45703125 C-65.03924388 30.73985944 -69.53994374 36.72515168 -72.95703125 44.3359375 C-75.10707383 54.44113761 -74.99864576 64.09767323 -69.83203125 73.3671875 C-64.45525728 81.56676781 -57.98274175 86.91431657 -48.45703125 89.5859375 C-40.19978355 91.05093306 -32.75181526 90.25815093 -25.41015625 86.01953125 C-17.31289367 80.2604317 -11.72886264 73.49459764 -8.89453125 63.9609375 C-7.59970556 52.82543659 -9.30064796 43.51558046 -15.92578125 34.30859375 C-21.68296225 27.23432181 -28.64587544 22.90843494 -37.83203125 21.92578125 C-44.31968649 21.75307746 -49.84057585 22.16002972 -55.58203125 25.2734375 Z " fill="#FFFFFF" transform="translate(830.58203125,142.7265625)"/>
<path d="M0 0 C2.50679016 -0.38095093 2.50679016 -0.38095093 5.7121582 -0.38818359 C7.51092155 -0.40236832 7.51092155 -0.40236832 9.34602356 -0.4168396 C10.6510936 -0.41076691 11.95616364 -0.40469421 13.30078125 -0.3984375 C14.65683651 -0.40045997 16.01289071 -0.40337284 17.36894226 -0.40713501 C20.22140789 -0.41156682 23.07359241 -0.40511126 25.92602539 -0.39111328 C29.54576022 -0.3741991 33.16481895 -0.38374189 36.78452778 -0.40183067 C39.5927974 -0.41279975 42.40091357 -0.40915999 45.20918846 -0.4014473 C47.18131834 -0.39852199 49.15345463 -0.40750378 51.12556458 -0.4168396 C63.60822301 -0.32116987 77.21606207 1.29383809 87.03125 9.75 C93.57408826 16.62552496 96.56295205 24.86113765 97.09375 34.26953125 C96.77683368 43.49971911 92.68681543 50.51823275 86.125 56.79296875 C83.83612205 58.80050546 81.72953457 60.63523272 79 62 C79.6290625 62.21914062 80.258125 62.43828125 80.90625 62.6640625 C90.49129755 66.21514939 97.45154685 70.60845706 102 80 C105.64345851 89.19539529 104.73849269 98.99158389 101 108 C95.7824851 118.54970046 87.86210897 124.88272598 76.85749817 128.75363159 C68.63334274 131.30684536 60.64416678 131.43921857 52.12109375 131.3984375 C50.6170284 131.40046275 49.112964 131.40337793 47.60890198 131.40713501 C44.481603 131.41152495 41.35456346 131.4052278 38.22729492 131.39111328 C34.21553282 131.37388882 30.20436708 131.38396609 26.192626 131.40183067 C23.09830685 131.41264559 20.00413054 131.40923513 16.90980721 131.4014473 C15.42939241 131.3994458 13.94896467 131.4019028 12.46856499 131.40888596 C10.4102488 131.41647766 8.35291998 131.40493645 6.29467773 131.38818359 C5.12428452 131.38579681 3.9538913 131.38341003 2.74803162 131.38095093 C1.84118118 131.25523712 0.93433075 131.12952332 0 131 C-2.19632035 127.70551948 -2.25081634 126.73798949 -2.25396729 122.91394043 C-2.25960693 121.86238266 -2.26524658 120.81082489 -2.27105713 119.72740173 C-2.26700867 118.57405838 -2.26296021 117.42071503 -2.25878906 116.23242188 C-2.2622937 115.01760635 -2.26579834 113.80279083 -2.26940918 112.55116272 C-2.27671068 109.21851337 -2.27498898 105.88611187 -2.26865101 102.55347633 C-2.26359108 99.06750782 -2.26828244 95.58154998 -2.27142334 92.09558105 C-2.27506301 86.24127295 -2.27026389 80.38701529 -2.26074219 74.53271484 C-2.24985761 67.76223505 -2.25338319 60.99187571 -2.264395 54.22139883 C-2.27346787 48.41071335 -2.27475316 42.60006415 -2.26951766 36.78937387 C-2.26639795 33.31789074 -2.26598862 29.84646425 -2.27259064 26.37498474 C-2.27943487 22.50580149 -2.2699513 18.6367534 -2.25878906 14.76757812 C-2.26283752 13.61423477 -2.26688599 12.46089142 -2.27105713 11.27259827 C-2.26541748 10.2210405 -2.25977783 9.16948273 -2.25396729 8.08605957 C-2.25321323 7.17092842 -2.25245918 6.25579727 -2.25168228 5.31293488 C-2 3 -2 3 0 0 Z M38 32 C38 38.6 38 45.2 38 52 C48.82515428 52.50188148 48.82515428 52.50188148 57.9375 47.25 C59.52940712 43.87890256 59.58075666 41.6781255 59 38 C55.63949724 34.40504356 52.92976712 32.33612049 48 32 C44.7 32 41.4 32 38 32 Z M38 80 C38 86.6 38 93.2 38 100 C40.495625 100.04125 42.99125 100.0825 45.5625 100.125 C46.33408447 100.14320801 47.10566895 100.16141602 47.90063477 100.18017578 C53.5223749 100.22459376 58.7201449 99.67989323 63.375 96.25 C65.44314031 93.38642112 65.92797337 91.52930494 66 88 C64.35728117 84.28226792 62.42390873 82.13975283 59 80 C56.58964638 79.59068134 56.58964638 79.59068134 54.015625 79.70703125 C53.08105469 79.71669922 52.14648438 79.72636719 51.18359375 79.73632812 C50.21550781 79.76146484 49.24742188 79.78660156 48.25 79.8125 C46.77466797 79.83280273 46.77466797 79.83280273 45.26953125 79.85351562 C42.84611923 79.88880803 40.42298951 79.94261341 38 80 Z " fill="#FFFFFF" transform="translate(1486,133)"/>
<path d="M0 0 C1.12347839 0.00607269 1.12347839 0.00607269 2.26965332 0.01226807 C3.03894165 0.01035461 3.80822998 0.00844116 4.60083008 0.00646973 C6.22823412 0.00510799 7.85564902 0.00880368 9.48303223 0.01715088 C11.97855963 0.02785086 14.47336714 0.01725555 16.96887207 0.00445557 C18.54830075 0.00577716 20.12772898 0.00833956 21.70715332 0.01226807 C22.45613892 0.0082196 23.20512451 0.00417114 23.97680664 0 C29.25848089 0.04797064 29.25848089 0.04797064 31.48840332 2.27789307 C31.69005429 4.7842882 31.76847259 7.18213762 31.75964355 9.69000244 C31.7648703 10.45451721 31.77009705 11.21903198 31.77548218 12.00671387 C31.78573946 13.67091311 31.79150558 15.33514458 31.79336357 16.99937439 C31.79702309 19.64042109 31.81374238 22.28109081 31.8341217 24.92205811 C31.88954475 32.43252514 31.92008777 39.94305002 31.94470215 47.45367432 C31.96066275 52.04672812 31.99098128 56.63951985 32.02946663 61.23243713 C32.04105421 62.97694596 32.04704643 64.72150189 32.04714775 66.46604919 C31.76672161 81.66172242 31.76672161 81.66172242 37.67590332 95.27789307 C43.98309028 99.76300379 50.26732482 99.64552161 57.71496582 98.80133057 C62.22567232 97.95001413 64.91413116 96.50307923 67.58859253 92.72280884 C71.88413434 84.6065287 71.05399251 75.48938587 71.02746582 66.56695557 C71.03738215 64.74853335 71.04932695 62.93012117 71.0632019 61.11172485 C71.09543353 56.34867032 71.10594591 51.58584573 71.11004639 46.82269287 C71.11883481 39.17868175 71.15423635 31.53485789 71.20222092 23.89100266 C71.2148162 21.22364033 71.21404812 18.5565157 71.21194458 15.88912964 C71.21852222 14.26041478 71.22552795 12.63170158 71.23303223 11.00299072 C71.22890823 10.2611554 71.22478424 9.51932007 71.22053528 8.75500488 C71.24988173 5.04186933 71.37223055 3.45215223 73.48840332 0.27789307 C76.23092776 -0.02627922 78.74392959 -0.14216491 81.48840332 -0.12054443 C82.2798877 -0.12341461 83.07137207 -0.12628479 83.88684082 -0.12924194 C85.56132726 -0.1312847 87.23583744 -0.12574 88.91027832 -0.11322021 C91.47852761 -0.09716866 94.04520318 -0.11306077 96.61340332 -0.13226318 C98.23840681 -0.13028079 99.86340931 -0.12643719 101.48840332 -0.12054443 C102.2592627 -0.12661713 103.03012207 -0.13268982 103.82434082 -0.13894653 C105.98840332 -0.11029053 105.98840332 -0.11029053 109.48840332 0.27789307 C111.91649327 3.92002799 111.74155321 5.6355402 111.74719238 9.97393799 C111.75069702 10.65093246 111.75420166 11.32792694 111.7578125 12.0254364 C111.76663004 14.26984864 111.76077221 16.51394618 111.75402832 18.75836182 C111.755377 20.33000244 111.75731922 21.90164266 111.75982666 23.47328186 C111.76277962 26.7779027 111.75848232 30.08241563 111.74914551 33.38702393 C111.73787244 37.57688071 111.74423101 41.76647779 111.75629044 45.95632458 C111.76360931 49.21075804 111.76117378 52.46513275 111.75603485 55.71956825 C111.75471945 57.26097966 111.75627018 58.80239677 111.76099396 60.3438015 C111.8120833 81.74099293 110.14239568 103.74765919 94.83605957 120.14117432 C84.77130203 129.30161088 70.95595801 133.72476136 57.48840332 134.27789307 C56.66340332 134.317854 55.83840332 134.35781494 54.98840332 134.39898682 C37.08246667 134.84143002 20.60952321 130.89269009 7.30090332 118.59039307 C-3.7693596 106.96991828 -7.66658781 90.72925949 -7.65686035 75.07940674 C-7.66021896 74.29155792 -7.66357758 73.50370911 -7.66703796 72.69198608 C-7.67647261 70.10992829 -7.67848655 67.52793573 -7.67956543 64.94586182 C-7.68278065 63.14461745 -7.68614492 61.34337334 -7.68965149 59.54212952 C-7.69562211 55.7789957 -7.69749326 52.0158848 -7.69689941 48.25274658 C-7.69679732 43.42268315 -7.71050762 38.59276515 -7.72767162 33.76273632 C-7.73876157 30.04909076 -7.74081964 26.33548088 -7.74028969 22.62182045 C-7.74147211 20.83996385 -7.7459085 19.05810639 -7.75362206 17.2762661 C-7.76337154 14.79387358 -7.76056528 12.31180397 -7.7545166 9.82940674 C-7.76013611 9.09018478 -7.76575562 8.35096283 -7.77154541 7.58934021 C-7.73151112 1.15463355 -6.39339734 0.05806782 0 0 Z " fill="#FFFFFF" transform="translate(1367.5115966796875,132.72210693359375)"/>
<path d="M0 0 C1.03060547 0.74830078 1.03060547 0.74830078 2.08203125 1.51171875 C11.95444475 9.24218849 18.7351777 22.0727346 22 34 C22.18359375 36.80859375 22.18359375 36.80859375 22 39 C19.22032535 41.77967465 10.24168665 40.5931898 6.35546875 40.6796875 C4.71180377 40.72627958 3.06859748 40.79438913 1.42675781 40.88476562 C-3.90167175 41.1730214 -8.78554055 41.23984341 -14 40 C-16.76847814 37.41187269 -18.15841357 35.15517511 -19.72485352 31.72167969 C-22.11145177 26.62771121 -26.36731495 24.11612214 -31.4140625 21.9765625 C-41.62611135 18.53039122 -50.76881893 19.46605183 -60.421875 24.18359375 C-67.66177863 28.47165748 -71.47279757 34.48137013 -74.13671875 42.36328125 C-76.49946976 52.3167708 -76.01803755 62.9647133 -71 72 C-65.34656748 80.11742855 -59.28351382 84.17285405 -49.75 86.375 C-40.49745577 87.78271766 -32.04595819 86.02972358 -24.1953125 80.91796875 C-20.38069696 77.58527083 -18.27172182 73.45902154 -16 69 C-15.01 67.515 -15.01 67.515 -14 66 C-11.31631871 65.72062926 -8.86635809 65.6278349 -6.18359375 65.671875 C-5.41193375 65.67374817 -4.64027374 65.67562134 -3.8452301 65.67755127 C-2.21358929 65.68427684 -0.58196473 65.69820142 1.04956055 65.71875 C3.55597804 65.7499189 6.06176727 65.75972077 8.56835938 65.765625 C10.15104939 65.77479415 11.73373296 65.78516965 13.31640625 65.796875 C14.44762657 65.80324982 14.44762657 65.80324982 15.60169983 65.80975342 C20.88284353 65.88284353 20.88284353 65.88284353 22 67 C23.04394828 78.22880952 15.64247727 89.89852287 9.125 98.5 C2.58501435 106.0354748 -4.61890295 111.09215071 -13.5625 115.375 C-14.25851318 115.70902832 -14.95452637 116.04305664 -15.67163086 116.38720703 C-31.10629497 123.41957949 -51.56478171 123.56401652 -67.58984375 118.37890625 C-86.10273293 110.89316756 -100.91106645 98.88935525 -109.875 80.5625 C-116.74278184 63.88020639 -117.34223909 45.91263758 -111 29 C-102.40967848 9.68808732 -88.26050507 -2.96919707 -69 -11 C-45.43713134 -19.0932033 -19.65483821 -15.31675847 0 0 Z " fill="#FFFFFF" transform="translate(1227,145)"/>
<path d="M0 0 C0.85307739 0.00719055 1.70615479 0.0143811 2.58508301 0.02178955 C3.48270355 0.0214975 4.3803241 0.02120544 5.30514526 0.02090454 C8.28120488 0.0223013 11.25701618 0.03787877 14.23303223 0.05352783 C16.29283512 0.05725673 18.35263977 0.06010428 20.41244507 0.06210327 C25.84093093 0.06974943 31.26931023 0.08940634 36.69775391 0.11151123 C42.23423826 0.13194853 47.77073979 0.14110045 53.30725098 0.15118408 C64.17578745 0.17265131 75.04424474 0.20679908 85.91271973 0.24884033 C87.76738353 3.70086339 88.1695099 6.05768316 88.17834473 10.00274658 C88.18221191 11.65500244 88.18221191 11.65500244 88.18615723 13.34063721 C88.17842285 14.48596924 88.17068848 15.63130127 88.16271973 16.81134033 C88.17432129 18.53513916 88.17432129 18.53513916 88.18615723 20.29376221 C88.1835791 21.39397705 88.18100098 22.49419189 88.17834473 23.62774658 C88.17608887 24.63394043 88.17383301 25.64013428 88.17150879 26.67681885 C87.91271973 29.24884033 87.91271973 29.24884033 85.91271973 32.24884033 C82.90905459 33.25006204 80.93532379 33.36996044 77.79870605 33.36236572 C76.75785355 33.36229019 75.71700104 33.36221466 74.64460754 33.36213684 C73.52265488 33.35697556 72.40070221 33.35181427 71.24475098 33.34649658 C70.09480148 33.34508163 68.94485199 33.34366669 67.76005554 33.34220886 C64.08175064 33.33660462 60.40350628 33.32405137 56.72521973 33.31134033 C54.23368415 33.30632588 51.74214761 33.30176288 49.25061035 33.29766846 C43.13795677 33.2866338 37.02534851 33.26936628 30.91271973 33.24884033 C30.91271973 38.52884033 30.91271973 43.80884033 30.91271973 49.24884033 C32.2298999 49.23312988 33.54708008 49.21741943 34.9041748 49.20123291 C39.78497212 49.14698647 44.66574273 49.11250943 49.54675293 49.08404541 C51.66040526 49.06894673 53.77402621 49.04846608 55.88757324 49.02252197 C58.92337788 48.98618636 61.95876879 48.96912489 64.99475098 48.95587158 C66.41519463 48.9326458 66.41519463 48.9326458 67.86433411 48.90895081 C69.18536385 48.90861092 69.18536385 48.90861092 70.53308105 48.90826416 C71.30807449 48.90160233 72.08306793 48.89494049 72.88154602 48.88807678 C75.46725286 49.34733281 76.34318761 50.17551819 77.91271973 52.24884033 C78.30090332 55.02032471 78.30090332 55.02032471 78.31115723 58.34259033 C78.31502441 59.53755127 78.3188916 60.73251221 78.32287598 61.96368408 C78.31127441 63.21278564 78.29967285 64.46188721 78.28771973 65.74884033 C78.29932129 66.99794189 78.31092285 68.24704346 78.32287598 69.53399658 C78.31900879 70.72895752 78.3151416 71.92391846 78.31115723 73.15509033 C78.30777344 74.25143799 78.30438965 75.34778564 78.30090332 76.47735596 C77.85525726 79.65910068 77.40295083 80.32996819 74.91271973 82.24884033 C72.88154602 82.60960388 72.88154602 82.60960388 70.53308105 82.5894165 C69.65239456 82.58918991 68.77170807 82.58896332 67.86433411 82.58872986 C66.91737167 82.573246 65.97040924 82.55776215 64.99475098 82.54180908 C64.02236984 82.53756424 63.04998871 82.5333194 62.04814148 82.52894592 C58.94022007 82.51214348 55.83294539 82.47448813 52.72521973 82.43634033 C50.61910929 82.42129553 48.51298871 82.40760677 46.40686035 82.39532471 C41.24189735 82.36223477 36.07741821 82.31044142 30.91271973 82.24884033 C30.91271973 87.52884033 30.91271973 92.80884033 30.91271973 98.24884033 C32.53282959 98.23312988 34.15293945 98.21741943 35.82214355 98.20123291 C41.82111661 98.14701742 47.82006792 98.11252057 53.81921387 98.08404541 C56.4178837 98.0689397 59.01652796 98.04845399 61.6151123 98.02252197 C65.34588931 97.9862179 69.07632985 97.96913175 72.80725098 97.95587158 C73.9729512 97.94038773 75.13865143 97.92490387 76.3396759 97.90895081 C77.96101692 97.90861092 77.96101692 97.90861092 79.6151123 97.90826416 C80.56775467 97.90160233 81.52039703 97.89494049 82.50190735 97.88807678 C84.91271973 98.24884033 84.91271973 98.24884033 86.72055054 99.59017944 C88.57909162 102.17596126 88.28418328 104.4547123 88.27600098 107.59649658 C88.27503418 109.46338135 88.27503418 109.46338135 88.27404785 111.36798096 C88.25793457 112.66928955 88.24182129 113.97059814 88.22521973 115.31134033 C88.22844238 116.61651611 88.23166504 117.92169189 88.23498535 119.26641846 C88.179583 128.98197706 88.179583 128.98197706 85.91271973 131.24884033 C83.00119763 131.44762682 80.18476939 131.52150322 77.27209473 131.50762939 C76.37768677 131.51113403 75.48327881 131.51463867 74.56176758 131.51824951 C71.59534012 131.52707627 68.62914975 131.52121434 65.66271973 131.51446533 C63.60770624 131.51581171 61.55269306 131.51775201 59.49768066 131.52026367 C55.18677748 131.52321622 50.87595706 131.51891309 46.56506348 131.50958252 C41.02973848 131.49818794 35.49460742 131.50474671 29.95928955 131.51672745 C25.71462534 131.52394252 21.47000737 131.52165974 17.2253418 131.51647186 C15.18391904 131.51513439 13.14249213 131.51678648 11.10107422 131.52143097 C8.25171736 131.5264904 5.40267785 131.51879419 2.55334473 131.50762939 C1.70340942 131.51167786 0.85347412 131.51572632 -0.0222168 131.51989746 C-5.85875242 131.47736818 -5.85875242 131.47736818 -8.08728027 129.24884033 C-8.33896255 127.02492523 -8.33896255 127.02492523 -8.34124756 124.20037842 C-8.34688721 123.13192184 -8.35252686 122.06346527 -8.3583374 120.96263123 C-8.35428894 119.78542007 -8.35024048 118.60820892 -8.34606934 117.39532471 C-8.34957397 116.15954178 -8.35307861 114.92375885 -8.35668945 113.65052795 C-8.36399873 110.25590682 -8.36226431 106.86152853 -8.35593128 103.46692085 C-8.35087756 99.91908561 -8.35556098 96.37126093 -8.35870361 92.82342529 C-8.3623451 86.86478811 -8.3575394 80.90620047 -8.34802246 74.9475708 C-8.33713754 68.05269257 -8.34066299 61.1579326 -8.35167527 54.26305723 C-8.36074298 48.34964849 -8.36203597 42.43627541 -8.35679793 36.52286196 C-8.35367537 32.98823895 -8.35327668 29.45367158 -8.35987091 25.91905212 C-8.36670578 21.98010641 -8.35724003 18.04129382 -8.34606934 14.10235596 C-8.3501178 12.92514481 -8.35416626 11.74793365 -8.3583374 10.53504944 C-8.35269775 9.46659286 -8.34705811 8.39813629 -8.34124756 7.29730225 C-8.34049351 6.3652018 -8.33973946 5.43310135 -8.33896255 4.47275543 C-7.7652159 -0.59698504 -4.26394147 0.01509037 0 0 Z " fill="#FFFFFF" transform="translate(1602.0872802734375,132.75115966796875)"/>
<path d="M0 0 C0.8499353 0.00247742 1.69987061 0.00495483 2.57556152 0.00750732 C3.46996948 0.00239639 4.36437744 -0.00271454 5.28588867 -0.00798035 C8.25230538 -0.02191896 11.2184909 -0.02091653 14.18493652 -0.01861572 C16.23995043 -0.0225 18.29496354 -0.02683411 20.34997559 -0.03160095 C24.66087444 -0.03907213 28.9716914 -0.03876516 33.28259277 -0.0335083 C38.81798055 -0.02770921 44.35303421 -0.04465103 49.8883667 -0.06785297 C54.13303602 -0.08255463 58.37762419 -0.08346695 62.62231445 -0.08034325 C64.66374372 -0.08085815 66.70517733 -0.08612736 68.74658203 -0.09615517 C71.59604889 -0.10843478 74.44485594 -0.10177942 77.29431152 -0.09014893 C78.14424683 -0.09779266 78.99418213 -0.1054364 79.86987305 -0.11331177 C82.21520996 -0.09205627 82.21520996 -0.09205627 85.93493652 0.28216553 C89.1754616 5.14295315 88.30378325 10.50634715 88.30993652 16.21966553 C88.33442871 17.41269287 88.3589209 18.60572021 88.38415527 19.8348999 C88.38802246 20.981521 88.39188965 22.12814209 88.39587402 23.30950928 C88.4040918 24.35872559 88.41230957 25.40794189 88.42077637 26.48895264 C87.80245691 30.04382342 86.71555798 31.03742168 83.93493652 33.28216553 C81.47979736 33.76318359 81.47979736 33.76318359 78.70739746 33.73626709 C77.66662048 33.73596497 76.62584351 33.73566284 75.55352783 33.73535156 C73.87834076 33.70438385 73.87834076 33.70438385 72.16931152 33.67279053 C71.02077698 33.66713074 69.87224243 33.66147095 68.68890381 33.65563965 C65.02049078 33.63324884 61.35305436 33.58304494 57.68493652 33.53216553 C55.19797146 33.51210414 52.71099109 33.49385274 50.22399902 33.47747803 C44.12726855 33.43337477 38.03126812 33.36432633 31.93493652 33.28216553 C31.93493652 38.56216553 31.93493652 43.84216553 31.93493652 49.28216553 C33.22182373 49.26645508 34.50871094 49.25074463 35.83459473 49.23455811 C40.60357417 49.18030777 45.37252627 49.14583323 50.14172363 49.11737061 C52.20687444 49.10227281 54.27199313 49.08179279 56.33703613 49.05584717 C59.30334391 49.01950758 62.26922823 49.00244923 65.23571777 48.98919678 C66.16080643 48.97371292 67.08589508 48.95822906 68.03901672 48.942276 C68.89968246 48.94204941 69.76034821 48.94182281 70.64709473 48.94158936 C71.40432327 48.93492752 72.16155182 48.92826569 72.94172668 48.92140198 C75.49997511 49.3844354 76.37764814 50.232794 77.93493652 52.28216553 C78.30725098 55.0536499 78.30725098 55.0536499 78.29821777 58.37591553 C78.29725098 60.16835693 78.29725098 60.16835693 78.29626465 61.99700928 C78.28015137 63.24611084 78.26403809 64.4952124 78.24743652 65.78216553 C78.25065918 67.03126709 78.25388184 68.28036865 78.25720215 69.56732178 C78.20193907 78.8816617 78.20193907 78.8816617 75.93493652 82.28216553 C74.02401733 82.64292908 74.02401733 82.64292908 71.66882324 82.6227417 C70.78806122 82.62251511 69.90729919 82.62228851 68.99984741 82.62205505 C68.04772369 82.6065712 67.09559998 82.59108734 66.11462402 82.57513428 C65.14082794 82.57088943 64.16703186 82.56664459 63.16372681 82.56227112 C60.04551848 82.54544339 56.92795036 82.50778364 53.80993652 82.46966553 C51.69926876 82.45462399 49.58859089 82.44093466 47.47790527 82.4286499 C42.29669629 82.39552662 37.11586213 82.34528704 31.93493652 82.28216553 C31.93937775 82.83704651 31.94381897 83.39192749 31.94839478 83.96362305 C31.99264009 89.73856023 32.02280794 95.51344926 32.0447998 101.28851318 C32.05485762 103.44380652 32.06850552 105.59908621 32.08581543 107.7543335 C32.11007315 110.85218676 32.12142185 113.94985962 32.13024902 117.04779053 C32.14057159 118.01146545 32.15089417 118.97514038 32.16152954 119.96801758 C32.16175613 121.31896515 32.16175613 121.31896515 32.1619873 122.69720459 C32.16642853 123.48774231 32.17086975 124.27828003 32.17544556 125.09277344 C31.906905 127.53734099 31.1537581 129.16372588 29.93493652 131.28216553 C24.84463708 131.35620763 19.7546496 131.41071561 14.66394043 131.44696045 C12.93146303 131.46206643 11.19902399 131.48255247 9.4666748 131.50848389 C6.97943674 131.54478874 4.49270326 131.56187318 2.00524902 131.57513428 C1.22811554 131.59061813 0.45098206 131.60610199 -0.34970093 131.62205505 C-2.5333252 131.6227417 -2.5333252 131.6227417 -6.06506348 131.28216553 C-8.26811344 127.97759058 -8.31589638 126.99141097 -8.31903076 123.15141296 C-8.32467041 122.08999588 -8.33031006 121.0285788 -8.33612061 119.93499756 C-8.33207214 118.77073242 -8.32802368 117.60646729 -8.32385254 116.40692139 C-8.32735718 115.180746 -8.33086182 113.95457062 -8.33447266 112.6912384 C-8.34177398 109.32766625 -8.34005282 105.96433967 -8.33371449 102.6007812 C-8.32865554 99.08364831 -8.33334554 95.566526 -8.33648682 92.0493927 C-8.34012629 86.14381015 -8.33532737 80.2382776 -8.32580566 74.33270264 C-8.31491609 67.49971925 -8.31845037 60.66685515 -8.32945848 53.83387464 C-8.33852589 47.97140064 -8.33981946 42.10896261 -8.33458114 36.24648386 C-8.33145907 32.74317471 -8.33105865 29.2399217 -8.33765411 25.73661613 C-8.34448861 21.83370171 -8.33502374 17.93092164 -8.32385254 14.02801514 C-8.32992523 12.27858109 -8.32992523 12.27858109 -8.33612061 10.49380493 C-8.33048096 9.43520767 -8.32484131 8.37661041 -8.31903076 7.28593445 C-8.31827671 6.36250716 -8.31752266 5.43907988 -8.31674576 4.48766994 C-7.74181942 -0.55043826 -4.23987823 0.03881167 0 0 Z " fill="#FFFFFF" transform="translate(629.0650634765625,132.71783447265625)"/>
<path d="M0 0 C1.9584198 -0.37473011 1.9584198 -0.37473011 4.40307617 -0.3742218 C5.32849213 -0.38123611 6.25390808 -0.38825043 7.20736694 -0.39547729 C8.22561554 -0.38783356 9.24386414 -0.38018982 10.29296875 -0.37231445 C11.36294098 -0.37596512 12.43291321 -0.37961578 13.53530884 -0.38337708 C17.08619869 -0.39150944 20.63663605 -0.37784987 24.1875 -0.36328125 C26.64607747 -0.36276297 29.10465536 -0.36327943 31.56323242 -0.36479187 C36.72157967 -0.36470203 41.87977102 -0.35424762 47.03808594 -0.33618164 C53.66302539 -0.31349419 60.28773686 -0.31294911 66.91270447 -0.31969929 C71.991191 -0.3230346 77.06962519 -0.31641742 82.14810181 -0.30657005 C84.59143805 -0.30271021 87.03478011 -0.30157306 89.4781189 -0.3031559 C92.88786999 -0.30352516 96.29732453 -0.29094533 99.70703125 -0.2746582 C100.72527985 -0.27713562 101.74352844 -0.27961304 102.79263306 -0.28216553 C104.18075699 -0.27153831 104.18075699 -0.27153831 105.59692383 -0.26069641 C106.40366043 -0.25864354 107.21039703 -0.25659067 108.0415802 -0.25447559 C110 0 110 0 112 2 C112.22705078 4.88916016 112.22705078 4.88916016 112.1953125 8.5390625 C112.18886719 9.84101563 112.18242188 11.14296875 112.17578125 12.484375 C112.15906929 13.86458595 112.14213939 15.24479429 112.125 16.625 C112.11497006 18.01301452 112.10584423 19.40103589 112.09765625 20.7890625 C112.07401863 24.19288026 112.04106867 27.59635506 112 31 C108.28625304 33.40644141 104.66151166 33.25818641 100.390625 33.1953125 C99.66381531 33.1924826 98.93700562 33.18965271 98.18817139 33.18673706 C95.87527749 33.17557523 93.56277612 33.15047851 91.25 33.125 C89.67839102 33.11496501 88.10677596 33.10584006 86.53515625 33.09765625 C82.68995378 33.07564904 78.84504336 33.04114715 75 33 C75.00444122 34.1835054 75.00888245 35.3670108 75.01345825 36.58638 C75.05395562 47.72555574 75.08396096 58.86471659 75.10362434 70.00394917 C75.11407322 75.73109817 75.12825256 81.45818787 75.15087891 87.18530273 C75.17256791 92.70956698 75.18456031 98.23377409 75.18975449 103.75807762 C75.19345734 105.86845995 75.20068782 107.97883907 75.21146011 110.08919716 C75.22592258 113.03910775 75.22798014 115.98878052 75.22705078 118.9387207 C75.23424133 119.81625504 75.24143188 120.69378937 75.24884033 121.59791565 C75.22810432 127.65784352 75.22810432 127.65784352 73 131 C70.32804644 131.29188604 67.89120853 131.39614259 65.21875 131.36328125 C64.44946167 131.36377975 63.68017334 131.36427826 62.88757324 131.36479187 C61.26014627 131.36245006 59.63271577 131.35271513 58.00537109 131.33618164 C55.50976282 131.31259228 53.01522261 131.31561898 50.51953125 131.32226562 C48.94009778 131.31668887 47.36066882 131.309579 45.78125 131.30078125 C45.0322644 131.30169266 44.28327881 131.30260406 43.51159668 131.30354309 C38.23102759 131.23102759 38.23102759 131.23102759 36 129 C35.81158246 125.95641474 35.74836919 123.00444765 35.77294922 119.96044922 C35.77265717 119.02381439 35.77236511 118.08717957 35.77206421 117.12216187 C35.77346115 114.01624389 35.78903951 110.91056374 35.8046875 107.8046875 C35.80841633 105.65520356 35.81126392 103.50571793 35.81326294 101.35623169 C35.82090961 95.69101288 35.84056697 90.02589617 35.8626709 84.36071777 C35.88310709 78.58294048 35.89225989 72.80514674 35.90234375 67.02734375 C35.92381188 55.68485091 35.95796027 44.34243393 36 33 C34.99098633 33.01571045 33.98197266 33.0314209 32.94238281 33.04760742 C29.19278979 33.1019768 25.4432315 33.13637532 21.69335938 33.16479492 C20.07155494 33.17986565 18.44979116 33.20032593 16.828125 33.22631836 C14.49468954 33.26277829 12.16179369 33.27974314 9.828125 33.29296875 C9.10506165 33.30845261 8.38199829 33.32393646 7.63702393 33.33988953 C4.49662919 33.34093536 2.32083101 33.17550479 -0.45889282 31.65490723 C-2.76785055 29.17544902 -2.48593807 27.24161993 -2.4609375 23.90625 C-2.45707031 22.71128906 -2.45320312 21.51632813 -2.44921875 20.28515625 C-2.42472656 19.03605469 -2.40023437 17.78695312 -2.375 16.5 C-2.37371094 15.25089844 -2.37242187 14.00179687 -2.37109375 12.71484375 C-2.28086515 3.42129772 -2.28086515 3.42129772 0 0 Z " fill="#FFFFFF" transform="translate(860,133)"/>
<path d="M0 0 C1.51289503 0.00031716 3.0258126 0.01164445 4.53857422 0.03173828 C5.33480194 0.03456818 6.13102966 0.03739807 6.9513855 0.04031372 C9.49882935 0.05152438 12.04592383 0.07663016 14.59326172 0.10205078 C16.31851706 0.11207945 18.04377791 0.1212055 19.76904297 0.12939453 C24.00225086 0.15146656 28.23519702 0.18600212 32.46826172 0.22705078 C34.17086742 3.63226219 33.59690993 7.52097197 33.58178711 11.26660156 C33.58193314 12.20323639 33.58207916 13.13987122 33.58222961 14.10488892 C33.58153116 17.210737 33.57374187 20.31652563 33.56591797 23.42236328 C33.56405355 25.57184822 33.56262976 27.72133358 33.56163025 29.87081909 C33.55780694 35.53600227 33.54797823 41.20115993 33.53692627 46.86633301 C33.52670815 52.64412084 33.52213177 58.42191278 33.51708984 64.19970703 C33.50635581 75.54216618 33.4892816 86.88460636 33.46826172 98.22705078 C34.20075638 98.22038895 34.93325104 98.21372711 35.6879425 98.2068634 C42.58882975 98.14676845 49.48967791 98.10108461 56.39075947 98.07161427 C59.93876108 98.05595385 63.48654659 98.03470927 67.03442383 98.00073242 C71.11265139 97.96192071 75.19065173 97.94734476 79.26904297 97.93408203 C80.54411209 97.91859818 81.81918121 97.90311432 83.13288879 97.88716125 C84.31388657 97.88693466 85.49488434 97.88670807 86.71166992 97.88647461 C87.75313675 97.87981277 88.79460358 97.87315094 89.86763 97.86628723 C92.46826172 98.22705078 92.46826172 98.22705078 94.30477905 99.56838989 C96.12296853 102.16040081 95.83968184 104.44960043 95.83154297 107.57470703 C95.83057617 109.4415918 95.83057617 109.4415918 95.82958984 111.34619141 C95.81347656 112.6475 95.79736328 113.94880859 95.78076172 115.28955078 C95.78398438 116.59472656 95.78720703 117.89990234 95.79052734 119.24462891 C95.73512499 128.96018751 95.73512499 128.96018751 93.46826172 131.22705078 C90.4053218 131.42602185 87.43275719 131.49967397 84.36865234 131.48583984 C82.95388863 131.4910968 82.95388863 131.4910968 81.51054382 131.49645996 C78.38179237 131.50528806 75.25326562 131.4994243 72.12451172 131.49267578 C69.95739702 131.49402212 67.79028261 131.49596239 65.62316895 131.49847412 C61.0768751 131.50142685 56.53065974 131.49712295 51.984375 131.48779297 C46.14638269 131.47639839 40.30857425 131.48295706 34.47058868 131.4949379 C29.99430955 131.50215247 25.51807426 131.49987042 21.04179382 131.49468231 C18.8887276 131.4933447 16.73565745 131.49499741 14.58259583 131.49964142 C11.57757973 131.50470003 8.57286467 131.49700575 5.56787109 131.48583984 C4.6711821 131.48988831 3.7744931 131.49393677 2.85063171 131.49810791 C-3.30321075 131.45557832 -3.30321075 131.45557832 -5.53173828 129.22705078 C-5.78342056 127.00313568 -5.78342056 127.00313568 -5.78570557 124.17858887 C-5.79134521 123.11013229 -5.79698486 122.04167572 -5.80279541 120.94084167 C-5.79874695 119.76363052 -5.79469849 118.58641937 -5.79052734 117.37353516 C-5.79403198 116.13775223 -5.79753662 114.9019693 -5.80114746 113.6287384 C-5.80845674 110.23411727 -5.80672231 106.83973898 -5.80038929 103.4451313 C-5.79533557 99.89729606 -5.80001899 96.34947138 -5.80316162 92.80163574 C-5.80680311 86.84299856 -5.80199741 80.88441091 -5.79248047 74.92578125 C-5.78159554 68.03090301 -5.78512099 61.13614305 -5.79613328 54.24126768 C-5.80520099 48.32785894 -5.80649398 42.41448585 -5.80125594 36.50107241 C-5.79813338 32.9664494 -5.79773469 29.43188203 -5.80432892 25.89726257 C-5.81116379 21.95831686 -5.80169804 18.01950427 -5.79052734 14.08056641 C-5.79457581 12.90335526 -5.79862427 11.7261441 -5.80279541 10.51325989 C-5.79715576 9.44480331 -5.79151611 8.37634674 -5.78570557 7.2755127 C-5.78495152 6.34341225 -5.78419746 5.4113118 -5.78342056 4.45096588 C-5.3305171 0.44902008 -3.83253056 0.24638832 0 0 Z " fill="#FFFFFF" transform="translate(1258.53173828125,132.77294921875)"/>
<path d="M0 0 C5.94166667 0.76666667 5.94166667 0.76666667 8.875 1.5 C8.37034072 6.03379387 6.71622417 8.28388345 3.75 11.6875 C0.76449338 15.23308576 -2.19112406 18.76469042 -4.9375 22.5 C-5.45957031 23.20125 -5.98164063 23.9025 -6.51953125 24.625 C-11.1114286 32.84795974 -12.87053276 41.62392309 -14.4375 50.8125 C-18.70514065 73.62293877 -32.42705285 89.1058551 -47.28125 106.1171875 C-52.68173302 112.32238651 -57.85988598 118.42888991 -62.125 125.5 C-66.9186913 124.67113067 -68.74229106 121.60428273 -71.5 117.875 C-72.46982371 116.59259116 -73.44116411 115.31132781 -74.4140625 114.03125 C-74.87844727 113.41765625 -75.34283203 112.8040625 -75.82128906 112.171875 C-77.40494052 110.14100512 -79.11754557 108.25621883 -80.875 106.375 C-83.125 103.5 -83.125 103.5 -82.90722656 101.51025391 C-81.6020353 98.15602642 -79.16366606 95.60387701 -76.875 92.875 C-61.88422358 74.56150235 -48.4540992 54.79351508 -36.6875 34.26171875 C-23.76346088 11.74623878 -23.76346088 11.74623878 -13.50390625 8.50390625 C-10.75006998 7.3417783 -9.45270073 5.98737692 -7.5 3.75 C-5.04236309 1.0373253 -3.70481686 0.02764789 0 0 Z " fill="#FFFFFF" transform="translate(360.125,222.5)"/>
<path d="M0 0 C6.765 -0.061875 13.53 -0.12375 20.5 -0.1875 C22.61986328 -0.21481201 24.73972656 -0.24212402 26.92382812 -0.27026367 C28.62629631 -0.27903521 30.32877084 -0.28667756 32.03125 -0.29296875 C33.3301416 -0.3159906 33.3301416 -0.3159906 34.65527344 -0.33947754 C41.56917671 -0.34242046 46.72875081 1.06698911 52.75 4.625 C57.01608853 9.12809345 59.20401716 14.41647906 59.4375 20.625 C59.13249096 26.46083973 57.26437682 30.61800673 53.3125 34.9375 C52.549375 35.618125 51.78625 36.29875 51 37 C51.9075 37.556875 52.815 38.11375 53.75 38.6875 C58.86108584 42.32423416 61.53056185 45.87734105 63 52 C63.62867046 58.91537504 61.65568623 63.44121219 57.9375 69.1875 C54.01792764 73.56892035 48.09291376 75.59232156 42.37078857 76.34655762 C39.63157547 76.45827425 36.9203752 76.45155582 34.1796875 76.390625 C33.30513916 76.38659668 32.43059082 76.38256836 31.52954102 76.37841797 C28.31114246 76.35773525 25.09304664 76.30189287 21.875 76.25 C14.65625 76.1675 7.4375 76.085 0 76 C0 50.92 0 25.84 0 0 Z M10 9 C10 17.25 10 25.5 10 34 C15.878125 34.0928125 15.878125 34.0928125 21.875 34.1875 C23.08913574 34.21481201 24.30327148 34.24212402 25.55419922 34.27026367 C33.41015996 34.32971073 41.24288626 33.95201794 47.625 28.9375 C49.65188648 24.60733344 49.7722776 20.6954478 49 16 C46.88372169 12.37209432 44.8846664 10.4935334 41 9 C37.6076002 8.72412956 37.6076002 8.72412956 33.828125 8.8046875 C32.8044986 8.80893234 32.8044986 8.80893234 31.76019287 8.81326294 C29.58994693 8.82441902 27.42012029 8.84951443 25.25 8.875 C23.77474556 8.88503574 22.29948463 8.89416056 20.82421875 8.90234375 C17.21585603 8.92263825 13.60839496 8.96179347 10 9 Z M10 42 C10 50.25 10 58.5 10 67 C14.55425881 67.09231606 19.1052156 67.17179505 23.65966797 67.21972656 C25.20567887 67.23972503 26.75161527 67.26693331 28.29736328 67.30175781 C40.29266405 67.77851349 40.29266405 67.77851349 51 63 C53.36531472 59.15735242 53.66318197 55.41271082 53 51 C51.17768188 46.97571416 49.75711736 45.39729921 45.84375 43.34375 C39.21115809 41.00438836 31.9367164 41.68736522 25 41.8125 C23.54298257 41.82757259 22.08595007 41.84125645 20.62890625 41.85351562 C17.08525616 41.88375155 13.54372768 41.94249961 10 42 Z " fill="#FFFFFF" transform="translate(1155,296)"/>
<path d="M0 0 C10.580625 -0.12375 10.580625 -0.12375 21.375 -0.25 C23.58106934 -0.28641602 25.78713867 -0.32283203 28.06005859 -0.36035156 C29.83950838 -0.37205119 31.61896901 -0.38223998 33.3984375 -0.390625 C34.29731689 -0.41108887 35.19619629 -0.43155273 36.12231445 -0.45263672 C43.28786766 -0.45651944 50.29398129 0.87714872 55.91708374 5.61541748 C60.79482238 10.65890975 63.04813579 17.11663549 63.375 24.0625 C62.75288092 30.59475038 60.85202592 36.39679592 56 41 C52.74708484 42.85441777 49.41537149 44.46829714 46 46 C47.49756809 48.41820421 48.99743072 50.83490403 50.5 53.25 C50.94907715 53.97203613 51.3981543 54.69407227 51.86083984 55.43798828 C55.31449641 60.96457127 58.90239501 66.37620145 62.6015625 71.7421875 C64 74 64 74 64 76 C60.20265395 76.54623722 56.78065967 76.73615521 53 76 C50.04576714 73.50324482 48.46626168 70.46061798 46.6875 67.0625 C45.73419172 65.38608204 44.77976684 63.71029854 43.82421875 62.03515625 C42.38983098 59.51494868 41.00928188 57.0195187 39.76367188 54.40014648 C38.37425899 51.79706183 37.21341787 49.9598521 35 48 C30.67889302 46.77711586 26.5901499 46.83135129 22.125 46.9375 C18.12375 46.958125 14.1225 46.97875 10 47 C10 56.57 10 66.14 10 76 C6.7 76 3.4 76 0 76 C0 50.92 0 25.84 0 0 Z M10 9 C10 18.57 10 28.14 10 38 C14.28731985 38.06919165 18.57267233 38.12882248 22.86010742 38.16479492 C24.31590368 38.17980313 25.77165532 38.20021633 27.22729492 38.22631836 C29.33002789 38.26305676 31.43215885 38.2798056 33.53515625 38.29296875 C35.42826538 38.31653442 35.42826538 38.31653442 37.35961914 38.34057617 C42.90861294 37.82143954 46.68173949 36.14997193 50.9375 32.4375 C53.5452843 28.97484601 53.64850052 25.63400981 53.42578125 21.40234375 C52.62405363 16.87883472 50.30434834 14.14624552 46.9375 11.1875 C42.95003833 8.74357188 39.2197107 8.86831598 34.70703125 8.90234375 C34.00100266 8.9037587 33.29497406 8.90517365 32.56755066 8.90663147 C30.31582374 8.91222236 28.06419679 8.92477312 25.8125 8.9375 C24.28450665 8.94251618 22.75651173 8.94707888 21.22851562 8.95117188 C17.48560772 8.9613373 13.74291557 8.98091431 10 9 Z " fill="#FFFFFF" transform="translate(706,296)"/>
<path d="M0 0 C6.15626165 4.50220859 11.93587358 9.87187434 15 17 C15 17.99 15 18.98 15 20 C11.55470533 20.48167226 8.42498372 20.69454004 5 20 C3.33347632 18.16860634 2.44165202 16.32083359 1.33984375 14.109375 C-1.44498491 9.72509664 -6.60097522 7.58394867 -11.51953125 6.38671875 C-19.67416268 5.11536676 -27.9239608 5.80325775 -35.046875 10.2890625 C-41.37541442 15.34648502 -44.41669352 21.37722374 -45.74609375 29.2578125 C-46.67600538 39.30085805 -44.76491489 48.16391598 -38.75 56.3125 C-33.44828243 61.49372399 -27.37549906 63.97198784 -19.94921875 64.01953125 C-10.93520787 63.44738445 -4.67034672 62.28954345 1.4375 55.375 C2.86010533 53.59965057 3.98186241 52.03627518 5 50 C8.3 50 11.6 50 15 50 C12.61701909 58.34043319 8.00037088 64.03588158 1 69 C-5.17433848 72.30093458 -11.05870633 73.5521746 -18 74 C-18.495 75.98 -18.495 75.98 -19 78 C-18.113125 77.9175 -17.22625 77.835 -16.3125 77.75 C-12.27533282 78.05469186 -10.86135289 79.22040005 -8 82 C-6.55569145 84.88861709 -6.62311494 86.79647701 -7 90 C-9.172635 92.57285724 -10.97993838 94.48996919 -14 96 C-20.86787678 96.54192654 -27.04038375 96.70820567 -33 93 C-33.9375 90.8125 -33.9375 90.8125 -34 89 C-32.515 88.01 -32.515 88.01 -31 87 C-28.9140625 87.53125 -28.9140625 87.53125 -26.625 88.5 C-22.88328404 89.91510251 -22.88328404 89.91510251 -18.9375 89.1875 C-17.9784375 88.5996875 -17.9784375 88.5996875 -17 88 C-17.33 87.01 -17.66 86.02 -18 85 C-18.93972656 84.94392578 -18.93972656 84.94392578 -19.8984375 84.88671875 C-20.71570313 84.82097656 -21.53296875 84.75523437 -22.375 84.6875 C-23.18710937 84.62949219 -23.99921875 84.57148438 -24.8359375 84.51171875 C-27 84 -27 84 -29 81 C-27.68 79.02 -26.36 77.04 -25 75 C-26.258125 74.649375 -27.51625 74.29875 -28.8125 73.9375 C-38.06430759 70.81465012 -46.19134809 65.65557344 -51 57 C-56.63882111 45.10390644 -58.07174028 32.31381199 -54.03125 19.59375 C-50.17170753 9.88641591 -44.75774547 3.6148575 -35.5390625 -1.31640625 C-24.62027723 -6.02164855 -10.40831232 -5.99120447 0 0 Z " fill="#FFFFFF" transform="translate(910,299)"/>
<path d="M0 0 C1.65322266 0.01740234 1.65322266 0.01740234 3.33984375 0.03515625 C4.99693359 0.04869141 4.99693359 0.04869141 6.6875 0.0625 C7.54214844 0.07410156 8.39679688 0.08570313 9.27734375 0.09765625 C27.82519856 42.82125833 27.82519856 42.82125833 34.69665527 59.31704712 C35.45239418 61.13028609 36.21297392 62.94150502 36.97363281 64.75268555 C37.41803711 65.82687744 37.86244141 66.90106934 38.3203125 68.0078125 C38.7021167 68.92699463 39.0839209 69.84617676 39.47729492 70.79321289 C40.27734375 73.09765625 40.27734375 73.09765625 40.27734375 76.09765625 C36.97734375 76.09765625 33.67734375 76.09765625 30.27734375 76.09765625 C27.30734375 69.16765625 24.33734375 62.23765625 21.27734375 55.09765625 C2.96234375 54.60265625 2.96234375 54.60265625 -15.72265625 54.09765625 C-16.05265625 55.74765625 -16.38265625 57.39765625 -16.72265625 59.09765625 C-17.21140227 60.43171365 -17.74242596 61.75111651 -18.31640625 63.05078125 C-18.62449219 63.75203125 -18.93257812 64.45328125 -19.25 65.17578125 C-19.73146484 66.25085938 -19.73146484 66.25085938 -20.22265625 67.34765625 C-20.54363281 68.07984375 -20.86460938 68.81203125 -21.1953125 69.56640625 C-23.58047394 74.95547394 -23.58047394 74.95547394 -24.72265625 76.09765625 C-26.40874591 76.16971136 -28.09766284 76.18151693 -29.78515625 76.16015625 C-31.16380859 76.14662109 -31.16380859 76.14662109 -32.5703125 76.1328125 C-33.28058594 76.12121094 -33.99085937 76.10960937 -34.72265625 76.09765625 C-32.5473407 69.2433932 -29.9441201 62.69165101 -27.08203125 56.09765625 C-26.63676086 55.06310303 -26.19149048 54.0285498 -25.73272705 52.96264648 C-24.31615803 49.67281428 -22.89469638 46.38512678 -21.47265625 43.09765625 C-19.61139034 38.78596985 -17.75243844 34.47329086 -15.89453125 30.16015625 C-15.22351379 28.60458008 -15.22351379 28.60458008 -14.53894043 27.01757812 C-11.53140752 20.02897243 -8.59199987 13.01577267 -5.75213623 5.95727539 C-3.38852614 0.12153967 -3.38852614 0.12153967 0 0 Z M2.27734375 11.09765625 C0.41909842 15.45472452 -1.43211264 19.81468793 -3.27685547 24.17749023 C-3.90546074 25.66138162 -4.5359838 27.1444621 -5.16845703 28.62670898 C-6.07699362 30.75684933 -6.97860361 32.88980635 -7.87890625 35.0234375 C-8.16326538 35.6860408 -8.44762451 36.3486441 -8.74060059 37.03132629 C-9.94263484 39.89666917 -10.72265625 41.95559326 -10.72265625 45.09765625 C-1.48265625 45.09765625 7.75734375 45.09765625 17.27734375 45.09765625 C14.83150303 37.76013408 12.17749818 30.72182673 9.21484375 23.59765625 C8.76818359 22.50195312 8.32152344 21.40625 7.86132812 20.27734375 C7.43013672 19.23835938 6.99894531 18.199375 6.5546875 17.12890625 C6.16531006 16.18595703 5.77593262 15.24300781 5.37475586 14.27148438 C4.47240026 11.94647168 4.47240026 11.94647168 2.27734375 11.09765625 Z " fill="#FFFFFF" transform="translate(1257.72265625,295.90234375)"/>
<path d="M0 0 C3.96 0 7.92 0 12 0 C16.06244311 7.86399538 19.55730233 15.8861784 22.9375 24.0625 C24.07383287 26.79757849 25.21260728 29.53163766 26.3515625 32.265625 C26.64450699 32.96967972 26.93745148 33.67373444 27.23927307 34.39912415 C29.45247288 39.71016744 31.69960185 45.00616694 33.9609375 50.296875 C34.28447708 51.05475815 34.60801666 51.8126413 34.94136047 52.5934906 C36.21149812 55.56822509 37.4817949 58.54286699 38.75875854 61.51467896 C39.64046058 63.56706479 40.51787823 65.62123486 41.39453125 67.67578125 C42.15020386 69.4378894 42.15020386 69.4378894 42.92114258 71.2355957 C44 74 44 74 44 76 C40.7 76 37.4 76 34 76 C25 58.5 25 58.5 25 54 C12.79 54.33 0.58 54.66 -12 55 C-14.97 61.93 -17.94 68.86 -21 76 C-24.3 76 -27.6 76 -31 76 C-30.35537003 72.10951568 -29.19277316 68.76414217 -27.65625 65.13671875 C-27.15955811 63.95795166 -26.66286621 62.77918457 -26.15112305 61.56469727 C-25.60085832 60.2722515 -25.05048076 58.97985377 -24.5 57.6875 C-23.93166734 56.34382936 -23.36372396 54.99999402 -22.79614258 53.65600586 C-21.22047034 49.92898641 -19.63834199 46.20473869 -18.05474854 42.4810791 C-16.94211514 39.86383777 -15.83098566 37.24596202 -14.72021484 34.62792969 C-9.82141603 23.0819031 -4.91433244 11.53942312 0 0 Z M6 11 C2.55413711 17.65019334 -0.38016541 24.45903234 -3.25 31.375 C-3.70890625 32.46683594 -4.1678125 33.55867188 -4.640625 34.68359375 C-5.07375 35.72386719 -5.506875 36.76414062 -5.953125 37.8359375 C-6.34661133 38.78001465 -6.74009766 39.7240918 -7.14550781 40.69677734 C-8.11594406 42.90308194 -8.11594406 42.90308194 -8 45 C1.57 45 11.14 45 21 45 C19.4325 41.060625 17.865 37.12125 16.25 33.0625 C15.7643457 31.83926025 15.27869141 30.61602051 14.77832031 29.35571289 C12.31268173 23.17606827 9.76757217 17.05088357 7 11 C6.67 11 6.34 11 6 11 Z " fill="#FFFFFF" transform="translate(961,296)"/>
<path d="M0 0 C1.65322266 0.01740234 1.65322266 0.01740234 3.33984375 0.03515625 C4.99693359 0.04869141 4.99693359 0.04869141 6.6875 0.0625 C7.54214844 0.07410156 8.39679687 0.08570313 9.27734375 0.09765625 C9.88654663 1.54942261 9.88654663 1.54942261 10.50805664 3.03051758 C12.09108967 6.8018842 13.67562235 10.57261917 15.26074219 14.34310913 C15.97890573 16.05153002 16.69684272 17.76004616 17.41455078 19.46865845 C21.46141327 29.10009559 25.53152049 38.7202944 29.6796875 48.30859375 C30.20140282 49.51647804 30.20140282 49.51647804 30.73365784 50.74876404 C32.40042074 54.60672856 34.07274505 58.46211534 35.75415039 62.3137207 C36.35585544 63.7038419 36.95734854 65.09405486 37.55859375 66.484375 C38.08517578 67.69311279 38.61175781 68.90185059 39.15429688 70.1472168 C40.27734375 73.09765625 40.27734375 73.09765625 40.27734375 76.09765625 C36.97734375 76.09765625 33.67734375 76.09765625 30.27734375 76.09765625 C28.77281466 72.80799145 27.27354866 69.5161043 25.77734375 66.22265625 C25.34808594 65.28550781 24.91882813 64.34835937 24.4765625 63.3828125 C24.07050781 62.48691406 23.66445313 61.59101563 23.24609375 60.66796875 C22.68051758 59.42684326 22.68051758 59.42684326 22.10351562 58.16064453 C21.27734375 56.09765625 21.27734375 56.09765625 21.27734375 54.09765625 C9.06734375 54.09765625 -3.14265625 54.09765625 -15.72265625 54.09765625 C-16.71265625 57.06765625 -17.70265625 60.03765625 -18.72265625 63.09765625 C-19.74548625 65.46932776 -20.80448232 67.82595572 -21.91015625 70.16015625 C-22.43996094 71.28550781 -22.96976563 72.41085937 -23.515625 73.5703125 C-23.91394531 74.40433594 -24.31226563 75.23835938 -24.72265625 76.09765625 C-28.02265625 76.09765625 -31.32265625 76.09765625 -34.72265625 76.09765625 C-32.26528616 68.27110082 -29.17100692 60.77124763 -25.97265625 53.22265625 C-25.4077333 51.88336164 -24.84295788 50.54400479 -24.27832031 49.20458984 C-22.43304709 44.83279763 -20.57850859 40.46496597 -18.72265625 36.09765625 C-18.38637207 35.30568848 -18.05008789 34.5137207 -17.70361328 33.69775391 C-15.63396462 28.82450414 -13.56011628 23.95307121 -11.48083496 19.08392334 C-10.80904267 17.51051081 -10.13789935 15.93682103 -9.46740723 14.362854 C-8.52896347 12.16138978 -7.58726616 9.96134816 -6.64453125 7.76171875 C-6.36283081 7.09966431 -6.08113037 6.43760986 -5.79089355 5.75549316 C-3.36794213 0.12080137 -3.36794213 0.12080137 0 0 Z M2.27734375 10.09765625 C0.60228663 14.11672302 -1.06997944 18.13693645 -2.73974609 22.15820312 C-3.30735231 23.52407625 -3.87570027 24.88964139 -4.44482422 26.25488281 C-5.26598437 28.22509192 -6.08440969 30.19641851 -6.90234375 32.16796875 C-7.39460449 33.35148926 -7.88686523 34.53500977 -8.39404297 35.75439453 C-9.61503098 38.82683295 -10.67715687 41.96115811 -11.72265625 45.09765625 C-2.15265625 45.09765625 7.41734375 45.09765625 17.27734375 45.09765625 C12.93963603 33.27740273 8.23380701 21.67112376 3.27734375 10.09765625 C2.94734375 10.09765625 2.61734375 10.09765625 2.27734375 10.09765625 Z " fill="#FFFFFF" transform="translate(809.72265625,295.90234375)"/>
<path d="M0 0 C1.65322266 0.01740234 1.65322266 0.01740234 3.33984375 0.03515625 C4.99693359 0.04869141 4.99693359 0.04869141 6.6875 0.0625 C7.54214844 0.07410156 8.39679687 0.08570313 9.27734375 0.09765625 C14.29446589 11.75701183 19.29242374 23.42449736 24.27734375 35.09765625 C24.6526825 35.97611206 25.02802124 36.85456787 25.41473389 37.75964355 C27.66372621 43.02502046 29.90616437 48.29311263 32.14013672 53.56488037 C32.85618824 55.25240821 33.57412313 56.93913814 34.29394531 58.62506104 C35.302656 60.9887885 36.3045162 63.35530532 37.3046875 65.72265625 C37.60708847 66.42736053 37.90948944 67.13206482 38.22105408 67.85812378 C39.4458391 70.77492537 40.27734375 72.89947289 40.27734375 76.09765625 C36.97734375 76.09765625 33.67734375 76.09765625 30.27734375 76.09765625 C27.30734375 69.16765625 24.33734375 62.23765625 21.27734375 55.09765625 C2.96234375 54.60265625 2.96234375 54.60265625 -15.72265625 54.09765625 C-16.71265625 57.06765625 -17.70265625 60.03765625 -18.72265625 63.09765625 C-19.57099653 65.27489951 -20.44262939 67.44335919 -21.34765625 69.59765625 C-21.77304687 70.61859375 -22.1984375 71.63953125 -22.63671875 72.69140625 C-23.72265625 75.09765625 -23.72265625 75.09765625 -24.72265625 76.09765625 C-26.40874591 76.16971136 -28.09766284 76.18151693 -29.78515625 76.16015625 C-31.16380859 76.14662109 -31.16380859 76.14662109 -32.5703125 76.1328125 C-33.28058594 76.12121094 -33.99085938 76.10960937 -34.72265625 76.09765625 C-32.07249976 67.45079528 -28.44414962 59.25488463 -24.84765625 50.97265625 C-23.50174693 47.85900276 -22.15875732 44.7440952 -20.81640625 41.62890625 C-20.47670807 40.84123871 -20.13700989 40.05357117 -19.78701782 39.24203491 C-17.45317021 33.82134946 -15.15353923 28.38719024 -12.87890625 22.94140625 C-12.4271553 21.8599382 -12.4271553 21.8599382 -11.96627808 20.75662231 C-10.53101454 17.31708369 -9.10006896 13.87578728 -7.67236328 10.43310547 C-7.16560059 9.2163916 -6.65883789 7.99967773 -6.13671875 6.74609375 C-5.4708374 5.14000244 -5.4708374 5.14000244 -4.79150391 3.50146484 C-3.28700933 0.11789847 -3.28700933 0.11789847 0 0 Z M2.27734375 11.09765625 C0.28125041 15.77808561 -1.71251809 20.45949555 -3.70410156 25.1418457 C-4.38249297 26.73587038 -5.06152831 28.32962117 -5.74121094 29.9230957 C-6.71587277 32.20843616 -7.68824386 34.49473916 -8.66015625 36.78125 C-8.96638916 37.49792343 -9.27262207 38.21459686 -9.58813477 38.95298767 C-11.07497882 41.92593762 -11.07497882 41.92593762 -11.72265625 45.09765625 C-2.15265625 45.09765625 7.41734375 45.09765625 17.27734375 45.09765625 C14.83150303 37.76013408 12.17749818 30.72182673 9.21484375 23.59765625 C8.76818359 22.50195312 8.32152344 21.40625 7.86132812 20.27734375 C7.43013672 19.23835938 6.99894531 18.199375 6.5546875 17.12890625 C6.16531006 16.18595703 5.77593262 15.24300781 5.37475586 14.27148438 C4.47240026 11.94647168 4.47240026 11.94647168 2.27734375 11.09765625 Z " fill="#FFFFFF" transform="translate(655.72265625,295.90234375)"/>
<path d="M0 0 C2.97 0 5.94 0 9 0 C9.01458252 1.40693115 9.02916504 2.8138623 9.04418945 4.26342773 C9.10242818 9.51367839 9.17965923 14.76351161 9.26245117 20.01342773 C9.29558052 22.27996006 9.32364928 24.54657251 9.34643555 26.81323242 C9.38020235 30.08286488 9.43252972 33.35177098 9.48828125 36.62109375 C9.49467117 37.62458359 9.5010611 38.62807343 9.50764465 39.66197205 C9.66881942 47.48138767 10.73070192 55.72268405 16.30078125 61.7109375 C21.47215827 65.6340511 27.74889286 67.40738101 34.1875 67 C40.40885266 66.00260854 45.65263283 63.83882205 49.875 59.0625 C52.94444127 54.63889346 54.23876651 51.12951634 54.31884766 45.75073242 C54.33871735 44.73005173 54.35858704 43.70937103 54.37905884 42.65776062 C54.39638565 41.02312614 54.39638565 41.02312614 54.4140625 39.35546875 C54.43342865 38.2305452 54.4527948 37.10562164 54.4727478 35.9466095 C54.5324371 32.36031634 54.57888694 28.77399091 54.625 25.1875 C54.66318953 22.75324136 54.70224183 20.31899608 54.7421875 17.88476562 C54.83813014 11.92328593 54.92220101 5.96174297 55 0 C58.3 0 61.6 0 65 0 C65.07473273 6.47377055 65.12887558 12.94728424 65.16479492 19.42138672 C65.1797854 21.61902243 65.20018466 23.81662871 65.22631836 26.01416016 C65.59538749 57.86989202 65.59538749 57.86989202 55 69 C46.45477421 75.61123408 37.69451756 77.9293167 27 77 C18.92515694 75.56366768 11.2306428 72.25448677 6.17578125 65.59765625 C0.83733532 57.00185348 -0.28855432 50.03358475 -0.1953125 40.0390625 C-0.1924826 38.89335785 -0.18965271 37.7476532 -0.18673706 36.56723022 C-0.17557135 32.91971245 -0.15047299 29.27244315 -0.125 25.625 C-0.11496555 23.14713897 -0.10584051 20.66927408 -0.09765625 18.19140625 C-0.0756438 12.12751986 -0.04220194 6.06377769 0 0 Z " fill="#FFFFFF" transform="translate(1073,296)"/>
<path d="M0 0 C0.66 0 1.32 0 2 0 C1.85691406 1.33804688 1.85691406 1.33804688 1.7109375 2.703125 C1.60007812 3.87359375 1.48921875 5.0440625 1.375 6.25 C1.25898438 7.41015625 1.14296875 8.5703125 1.0234375 9.765625 C0.99992366 13.01053476 1.0509931 14.44772906 3 17 C5.15744233 18.33346029 5.15744233 18.33346029 7.625 19.25 C8.85089844 19.75273437 8.85089844 19.75273437 10.1015625 20.265625 C10.72804688 20.50796875 11.35453125 20.7503125 12 21 C11.83514771 29.7221849 10.8760451 37.83162182 4.65209961 44.42871094 C-0.32993036 49.05685064 -6.04507464 51.70803389 -12.1875 54.5 C-14.24402808 55.45326621 -16.30002353 56.40768239 -18.35546875 57.36328125 C-19.33306152 57.81525879 -20.3106543 58.26723633 -21.31787109 58.73291016 C-24.60457755 60.28561419 -27.79517884 61.97310393 -31 63.6875 C-35.17754949 65.78536956 -38.25475898 66.87157488 -43 66 C-48.3860878 63.69167666 -51.86102373 59.44066344 -54.3125 54.1875 C-55.19853165 50.0795351 -55.16735235 46.18380878 -55 42 C-46.62790698 43.74883721 -46.62790698 43.74883721 -43.1875 45.125 C-36.98982873 46.82632152 -30.50803307 46.8800116 -24.4375 44.75 C-20.35937447 41.82211501 -19.04368892 39.28885038 -17.625 34.5625 C-16.56773084 31.09103868 -16.04961699 30.04730923 -13.3125 27.4375 C-10.73478532 24.72044939 -10.67509745 24.23462856 -10.6875 20.6875 C-10.8421875 18.8621875 -10.8421875 18.8621875 -11 17 C-10.071875 16.87625 -9.14375 16.7525 -8.1875 16.625 C-4.89111167 15.36084193 -4.89111167 15.36084193 -4.00390625 12.81640625 C-3.26064138 10.22460697 -2.62183088 7.62322035 -2 5 C-1.36236461 3.32201212 -0.71372719 1.64706275 0 0 Z " fill="#FFFFFF" transform="translate(283,188)"/>
<path d="M0 0 C0.66 0 1.32 0 2 0 C1.835 1.258125 1.67 2.51625 1.5 3.8125 C-0.8538762 28.56281594 3.78558496 52.4437201 8.54101562 76.62619019 C11.43562928 91.37572695 13.70677007 106.01299658 15 121 C14.34 121 13.68 121 13 121 C11.81420898 119.6015625 11.81420898 119.6015625 10.49609375 117.625 C10.00665283 116.8942627 9.51721191 116.16352539 9.01293945 115.41064453 C8.49304443 114.61513184 7.97314941 113.81961914 7.4375 113 C6.90535889 112.19288574 6.37321777 111.38577148 5.82495117 110.55419922 C2.31669305 105.17329336 -1.02440892 99.71564056 -4.1875 94.125 C-4.56140869 93.46628906 -4.93531738 92.80757813 -5.32055664 92.12890625 C-7.82148537 87.60729319 -9.1108085 84.04239343 -9.16113281 78.90014648 C-9.17074036 78.10088242 -9.1803479 77.30161835 -9.19024658 76.47813416 C-9.19449646 75.61781082 -9.19874634 74.75748749 -9.203125 73.87109375 C-9.20882507 72.96738541 -9.21452515 72.06367706 -9.22039795 71.13258362 C-9.22984559 69.21185471 -9.236381 67.29110961 -9.24023438 65.37036133 C-9.24979239 62.49985083 -9.28075341 59.63010354 -9.3125 56.75976562 C-9.40451736 40.91178896 -7.69912001 25.71872657 -3.375 10.4375 C-3.1584375 9.63376953 -2.941875 8.83003906 -2.71875 8.00195312 C-1.17722345 2.35444689 -1.17722345 2.35444689 0 0 Z " fill="#FFFFFF" transform="translate(38,299)"/>
<path d="M0 0 C20.46 0 40.92 0 62 0 C62 2.64 62 5.28 62 8 C61.67 8.33 61.34 8.66 61 9 C52.42 9 43.84 9 35 9 C35 31.11 35 53.22 35 76 C32.03 76 29.06 76 26 76 C26 53.89 26 31.78 26 9 C17.42 9 8.84 9 0 9 C0 6.03 0 3.06 0 0 Z " fill="#FFFFFF" transform="translate(1001,296)"/>
<path d="M0 0 C0.66 0 1.32 0 2 0 C0.71494934 8.82405611 -0.83001827 17.56217276 -2.6015625 26.30078125 C-2.9635524 28.10436348 -2.9635524 28.10436348 -3.33285522 29.94438171 C-4.09416386 33.73431166 -4.85950837 37.52341297 -5.625 41.3125 C-6.14610199 43.90294076 -6.66693775 46.4934351 -7.1875 49.08398438 C-8.45525985 55.38994477 -9.7263222 61.6952324 -11 68 C-15.79329336 68 -17.69369919 66.35681922 -21.25 63.5 C-21.82266602 63.04802246 -22.39533203 62.59604492 -22.98535156 62.13037109 C-34.38676829 52.99960271 -34.38676829 52.99960271 -37 48.140625 C-37 44.60586223 -34.52479692 42.59440598 -32.25 40.125 C-31.21911266 38.9590092 -30.19053274 37.79097499 -29.1640625 36.62109375 C-28.63458008 36.02151855 -28.10509766 35.42194336 -27.55957031 34.80419922 C-25.14518675 32.01110364 -22.88391698 29.10670938 -20.625 26.1875 C-15.91778747 20.13217619 -11.10207827 14.1715754 -6.23876953 8.2409668 C-5.71524902 7.60070557 -5.19172852 6.96044434 -4.65234375 6.30078125 C-3.95612915 5.45253784 -3.95612915 5.45253784 -3.24584961 4.5871582 C-2.08928002 3.11373886 -1.03902584 1.55853877 0 0 Z " fill="#FFFFFF" transform="translate(337,305)"/>
</svg>
